{
	"asset":{
		"generator":"Khronos glTF Blender I/O v3.5.30",
		"version":"2.0"
	},
	"scene":0,
	"scenes":[
		{
			"name":"Scene",
			"nodes":[
				0
			]
		}
	],
	"nodes":[
		{
			"mesh":0,
			"name":"Object_40"
		}
	],
	"materials":[
		{
			"doubleSided":true,
			"name":"Sp_Wheel",
			"pbrMetallicRoughness":{
				"baseColorTexture":{
					"index":0
				},
				"metallicFactor":0.48342224955558777,
				"metallicRoughnessTexture":{
					"index":1
				}
			}
		}
	],
	"meshes":[
		{
			"name":"Object_18",
			"primitives":[
				{
					"attributes":{
						"POSITION":0,
						"TEXCOORD_0":1,
						"NORMAL":2
					},
					"indices":3,
					"material":0
				}
			]
		}
	],
	"textures":[
		{
			"sampler":0,
			"source":0
		},
		{
			"sampler":0,
			"source":1
		}
	],
	"images":[
		{
			"mimeType":"image/png",
			"name":"Sp_Wheel_baseColor",
			"uri":"Sp_Wheel_baseColor.png"
		},
		{
			"mimeType":"image/png",
			"name":"Sp_Wheel_metallicRoughness",
			"uri":"Sp_Wheel_metallicRoughness.png"
		}
	],
	"accessors":[
		{
			"bufferView":0,
			"componentType":5126,
			"count":1466,
			"max":[
				0.13487467169761658,
				0.4157170355319977,
				0.41231054067611694
			],
			"min":[
				-0.2220640480518341,
				-0.4096772372722626,
				-0.41308385133743286
			],
			"type":"VEC3"
		},
		{
			"bufferView":1,
			"componentType":5126,
			"count":1466,
			"type":"VEC2"
		},
		{
			"bufferView":2,
			"componentType":5126,
			"count":1466,
			"type":"VEC3"
		},
		{
			"bufferView":3,
			"componentType":5123,
			"count":4134,
			"type":"SCALAR"
		}
	],
	"bufferViews":[
		{
			"buffer":0,
			"byteLength":17592,
			"byteOffset":0,
			"target":34962
		},
		{
			"buffer":0,
			"byteLength":11728,
			"byteOffset":17592,
			"target":34962
		},
		{
			"buffer":0,
			"byteLength":17592,
			"byteOffset":29320,
			"target":34962
		},
		{
			"buffer":0,
			"byteLength":8268,
			"byteOffset":46912,
			"target":34963
		}
	],
	"samplers":[
		{
			"magFilter":9729,
			"minFilter":9987
		}
	],
	"buffers":[
		{
			"byteLength":55180,
			"uri":"tire2.bin"
		}
	]
}
