# Blender v3.5.1 OBJ File: ''
# www.blender.org
mtllib level0.mtl
o Cube_Cube.001
v -45.110165 -0.259819 25.827377
v -45.110165 0.259819 25.827377
v -45.110165 -0.259819 -25.827377
v -45.110165 0.259819 -25.827377
v 45.110165 -0.259819 25.827377
v 45.110165 0.259819 25.827377
v 45.110165 -0.259819 -25.827377
v 45.110165 0.259819 -25.827377
vt 0.375000 0.000000
vt 0.625000 0.000000
vt 0.625000 0.250000
vt 0.375000 0.250000
vt 0.625000 0.500000
vt 0.375000 0.500000
vt 0.625000 0.750000
vt 0.375000 0.750000
vt 0.625000 1.000000
vt 0.375000 1.000000
vt 0.125000 0.500000
vt 0.125000 0.750000
vt 0.875000 0.500000
vt 0.875000 0.750000
vn -1.0000 0.0000 0.0000
vn 0.0000 0.0000 -1.0000
vn 1.0000 0.0000 0.0000
vn 0.0000 0.0000 1.0000
vn 0.0000 -1.0000 0.0000
vn 0.0000 1.0000 0.0000
usemtl None
s off
f 1/1/1 2/2/1 4/3/1 3/4/1
f 3/4/2 4/3/2 8/5/2 7/6/2
f 7/6/3 8/5/3 6/7/3 5/8/3
f 5/8/4 6/7/4 2/9/4 1/10/4
f 3/11/5 7/6/5 5/8/5 1/12/5
f 8/5/6 4/13/6 2/14/6 6/7/6
o Cube.001_Cube.002
v -9.453748 10.434047 -9.990742
v -9.014676 11.176539 -9.990742
v -9.453748 10.434047 -21.294889
v -9.014676 11.176539 -21.294889
v 9.014676 -0.487230 -9.990742
v 9.453748 0.255262 -9.990742
v 9.014676 -0.487230 -21.294889
v 9.453748 0.255262 -21.294889
vt 0.375000 0.000000
vt 0.625000 0.000000
vt 0.625000 0.250000
vt 0.375000 0.250000
vt 0.625000 0.500000
vt 0.375000 0.500000
vt 0.625000 0.750000
vt 0.375000 0.750000
vt 0.625000 1.000000
vt 0.375000 1.000000
vt 0.125000 0.500000
vt 0.125000 0.750000
vt 0.875000 0.500000
vt 0.875000 0.750000
vn -0.8608 0.5090 0.0000
vn -0.0000 0.0000 -1.0000
vn 0.8608 -0.5090 0.0000
vn 0.0000 0.0000 1.0000
vn -0.5090 -0.8608 0.0000
vn 0.5090 0.8608 0.0000
usemtl None
s off
f 9/15/7 10/16/7 12/17/7 11/18/7
f 11/18/8 12/17/8 16/19/8 15/20/8
f 15/20/9 16/19/9 14/21/9 13/22/9
f 13/22/10 14/21/10 10/23/10 9/24/10
f 11/25/11 15/20/11 13/22/11 9/26/11
f 16/19/12 12/27/12 10/28/12 14/21/12
o Cube.002_Cube.003
v -100.960587 10.639326 25.827377
v -100.960587 11.158964 25.827377
v -100.960587 10.639326 -25.827377
v -100.960587 11.158964 -25.827377
v -10.740261 10.639326 25.827377
v -10.740261 11.158964 25.827377
v -10.740261 10.639326 -25.827377
v -10.740261 11.158964 -25.827377
vt 0.375000 0.000000
vt 0.625000 0.000000
vt 0.625000 0.250000
vt 0.375000 0.250000
vt 0.625000 0.500000
vt 0.375000 0.500000
vt 0.625000 0.750000
vt 0.375000 0.750000
vt 0.625000 1.000000
vt 0.375000 1.000000
vt 0.125000 0.500000
vt 0.125000 0.750000
vt 0.875000 0.500000
vt 0.875000 0.750000
vn -1.0000 0.0000 0.0000
vn 0.0000 0.0000 -1.0000
vn 1.0000 0.0000 0.0000
vn 0.0000 0.0000 1.0000
vn 0.0000 -1.0000 0.0000
vn 0.0000 1.0000 0.0000
usemtl None
s off
f 17/29/13 18/30/13 20/31/13 19/32/13
f 19/32/14 20/31/14 24/33/14 23/34/14
f 23/34/15 24/33/15 22/35/15 21/36/15
f 21/36/16 22/35/16 18/37/16 17/38/16
f 19/39/17 23/34/17 21/36/17 17/40/17
f 24/33/18 20/41/18 18/42/18 22/35/18
