{
  "accessors": [
    {
      "bufferView": 0,
      "componentType": 5126,
      "count": 403,
      "type": "VEC3",
      "max": [
        1.0914393663406372,
        0.38844588398933411,
        0.41443338990211487
      ],
      "min": [
        0.30326271057128906,
        -0.46463620662689209,
        -0.053787656128406525
      ]
    },
    {
      "bufferView": 1,
      "componentType": 5126,
      "count": 403,
      "type": "VEC3",
      "max": [
        1.0,
        0.99999988079071045,
        1.0
      ],
      "min": [
        -1.0,
        -0.99999988079071045,
        -0.99999988079071045
      ]
    },
    {
      "bufferView": 2,
      "componentType": 5126,
      "count": 403,
      "type": "VEC4",
      "max": [
        1.0,
        0.91356074810028076,
        0.99999988079071045,
        1.0
      ],
      "min": [
        -1.0,
        -0.99658244848251343,
        -0.99999988079071045,
        -1.0
      ]
    },
    {
      "bufferView": 3,
      "componentType": 5126,
      "count": 403,
      "type": "VEC2",
      "max": [
        0.72628289461135864,
        0.42738416790962219
      ],
      "min": [
        0.0054069138132035732,
        0.0054554250091314316
      ]
    },
    {
      "bufferView": 4,
      "componentType": 5125,
      "count": 729,
      "type": "SCALAR",
      "max": [
        402.0
      ],
      "min": [
        0.0
      ]
    },
    {
      "bufferView": 5,
      "componentType": 5126,
      "count": 546,
      "type": "VEC3",
      "max": [
        0.87602341175079346,
        0.46463623642921448,
        0.25970515608787537
      ],
      "min": [
        -1.0914394855499268,
        -0.28172361850738525,
        -0.41443336009979248
      ]
    },
    {
      "bufferView": 6,
      "componentType": 5126,
      "count": 546,
      "type": "VEC3",
      "max": [
        1.0,
        1.0,
        1.0
      ],
      "min": [
        -1.0,
        -1.0,
        -1.0
      ]
    },
    {
      "bufferView": 7,
      "componentType": 5126,
      "count": 546,
      "type": "VEC4",
      "max": [
        1.0,
        1.0,
        1.0,
        1.0
      ],
      "min": [
        -1.0,
        -0.98768800497055054,
        -1.0,
        -1.0
      ]
    },
    {
      "bufferView": 8,
      "componentType": 5126,
      "count": 546,
      "type": "VEC2",
      "max": [
        0.47966521978378296,
        0.33624640107154846
      ],
      "min": [
        0.0029475316405296326,
        0.075283363461494446
      ]
    },
    {
      "bufferView": 9,
      "componentType": 5126,
      "count": 546,
      "type": "VEC2",
      "max": [
        0.47966521978378296,
        0.33624640107154846
      ],
      "min": [
        0.0029475316405296326,
        0.075283363461494446
      ]
    },
    {
      "bufferView": 10,
      "componentType": 5125,
      "count": 1116,
      "type": "SCALAR",
      "max": [
        545.0
      ],
      "min": [
        0.0
      ]
    },
    {
      "bufferView": 11,
      "componentType": 5126,
      "count": 609,
      "type": "VEC3",
      "max": [
        1.3767625093460083,
        0.41932410001754761,
        2.2344825267791748
      ],
      "min": [
        -1.3767625093460083,
        -0.34223514795303345,
        0.00619710236787796
      ]
    },
    {
      "bufferView": 12,
      "componentType": 5126,
      "count": 609,
      "type": "VEC3",
      "max": [
        0.9933091402053833,
        0.99984514713287354,
        0.98896807432174683
      ],
      "min": [
        -0.99468958377838135,
        -0.99746561050415039,
        -0.99759858846664429
      ]
    },
    {
      "bufferView": 13,
      "componentType": 5126,
      "count": 609,
      "type": "VEC4",
      "max": [
        0.9999992847442627,
        0.99996864795684814,
        0.99753624200820923,
        1.0
      ],
      "min": [
        -0.999991238117218,
        -0.99464690685272217,
        -0.9987373948097229,
        -1.0
      ]
    },
    {
      "bufferView": 14,
      "componentType": 5126,
      "count": 609,
      "type": "VEC2",
      "max": [
        0.98605549335479736,
        0.86231744289398193
      ],
      "min": [
        0.0037584751844406128,
        0.00082826055586338043
      ]
    },
    {
      "bufferView": 15,
      "componentType": 5125,
      "count": 2058,
      "type": "SCALAR",
      "max": [
        608.0
      ],
      "min": [
        0.0
      ]
    },
    {
      "bufferView": 16,
      "componentType": 5126,
      "count": 239,
      "type": "VEC3",
      "max": [
        0.18513965606689453,
        0.18326263129711151,
        2.5584120750427246
      ],
      "min": [
        -0.18514011800289154,
        -0.30013307929039,
        1.9961292743682861
      ]
    },
    {
      "bufferView": 17,
      "componentType": 5126,
      "count": 239,
      "type": "VEC3",
      "max": [
        0.99610233306884766,
        0.99588996171951294,
        0.998997151851654
      ],
      "min": [
        -0.99610233306884766,
        -0.97122013568878174,
        -1.0
      ]
    },
    {
      "bufferView": 18,
      "componentType": 5126,
      "count": 239,
      "type": "VEC4",
      "max": [
        1.0,
        0.9458431601524353,
        0.6375921368598938,
        1.0
      ],
      "min": [
        -0.99983894824981689,
        -0.99995023012161255,
        -0.57560580968856812,
        -1.0
      ]
    },
    {
      "bufferView": 19,
      "componentType": 5126,
      "count": 239,
      "type": "VEC2",
      "max": [
        0.90282237529754639,
        0.96183043718338013
      ],
      "min": [
        0.10168296098709106,
        0.59739953279495239
      ]
    },
    {
      "bufferView": 20,
      "componentType": 5125,
      "count": 744,
      "type": "SCALAR",
      "max": [
        238.0
      ],
      "min": [
        0.0
      ]
    },
    {
      "bufferView": 21,
      "componentType": 5126,
      "count": 14,
      "type": "MAT4"
    },
    {
      "bufferView": 22,
      "componentType": 5123,
      "count": 609,
      "type": "VEC4",
      "max": [
        13.0,
        13.0,
        7.0,
        0.0
      ],
      "min": [
        0.0,
        0.0,
        0.0,
        0.0
      ]
    },
    {
      "bufferView": 23,
      "componentType": 5126,
      "count": 609,
      "type": "VEC4",
      "max": [
        1.0,
        0.5,
        0.20793804526329041,
        0.0
      ],
      "min": [
        0.41091153025627136,
        0.0,
        0.0,
        0.0
      ]
    },
    {
      "bufferView": 24,
      "componentType": 5126,
      "count": 2,
      "type": "MAT4"
    },
    {
      "bufferView": 25,
      "componentType": 5123,
      "count": 239,
      "type": "VEC4",
      "max": [
        1.0,
        1.0,
        0.0,
        0.0
      ],
      "min": [
        0.0,
        0.0,
        0.0,
        0.0
      ]
    },
    {
      "bufferView": 26,
      "componentType": 5126,
      "count": 239,
      "type": "VEC4",
      "max": [
        1.0,
        0.39999997615814209,
        0.0,
        0.0
      ],
      "min": [
        0.60000002384185791,
        0.0,
        0.0,
        0.0
      ]
    }
  ],
  "asset": {
    "generator": "Plattar UnityGLTF (2022.3.17f1)",
    "version": "2.0"
  },
  "buffers": [
    {
      "uri": "ToonSoldiers_gunner.bin",
      "byteLength": 130588
    }
  ],
  "bufferViews": [
    {
      "buffer": 0,
      "byteLength": 4836
    },
    {
      "buffer": 0,
      "byteOffset": 4836,
      "byteLength": 4836
    },
    {
      "buffer": 0,
      "byteOffset": 9672,
      "byteLength": 6448
    },
    {
      "buffer": 0,
      "byteOffset": 16120,
      "byteLength": 3224
    },
    {
      "buffer": 0,
      "byteOffset": 19344,
      "byteLength": 2916
    },
    {
      "buffer": 0,
      "byteOffset": 22260,
      "byteLength": 6552
    },
    {
      "buffer": 0,
      "byteOffset": 28812,
      "byteLength": 6552
    },
    {
      "buffer": 0,
      "byteOffset": 35364,
      "byteLength": 8736
    },
    {
      "buffer": 0,
      "byteOffset": 44100,
      "byteLength": 4368
    },
    {
      "buffer": 0,
      "byteOffset": 48468,
      "byteLength": 4368
    },
    {
      "buffer": 0,
      "byteOffset": 52836,
      "byteLength": 4464
    },
    {
      "buffer": 0,
      "byteOffset": 57300,
      "byteLength": 7308
    },
    {
      "buffer": 0,
      "byteOffset": 64608,
      "byteLength": 7308
    },
    {
      "buffer": 0,
      "byteOffset": 71916,
      "byteLength": 9744
    },
    {
      "buffer": 0,
      "byteOffset": 81660,
      "byteLength": 4872
    },
    {
      "buffer": 0,
      "byteOffset": 86532,
      "byteLength": 8232
    },
    {
      "buffer": 0,
      "byteOffset": 94764,
      "byteLength": 2868
    },
    {
      "buffer": 0,
      "byteOffset": 97632,
      "byteLength": 2868
    },
    {
      "buffer": 0,
      "byteOffset": 100500,
      "byteLength": 3824
    },
    {
      "buffer": 0,
      "byteOffset": 104324,
      "byteLength": 1912
    },
    {
      "buffer": 0,
      "byteOffset": 106236,
      "byteLength": 2976
    },
    {
      "buffer": 0,
      "byteOffset": 109212,
      "byteLength": 896
    },
    {
      "buffer": 0,
      "byteOffset": 110108,
      "byteLength": 4872
    },
    {
      "buffer": 0,
      "byteOffset": 114980,
      "byteLength": 9744
    },
    {
      "buffer": 0,
      "byteOffset": 124724,
      "byteLength": 128
    },
    {
      "buffer": 0,
      "byteOffset": 124852,
      "byteLength": 1912
    },
    {
      "buffer": 0,
      "byteOffset": 126764,
      "byteLength": 3824
    }
  ],
  "materials": [
    {
      "name": "ToonSoldiers_equipment"
    },
    {
      "name": "ToonSoldiers_weapons"
    },
    {
      "name": "ToonSoldiers_material"
    }
  ],
  "meshes": [
    {
      "primitives": [
        {
          "attributes": {
            "POSITION": 0,
            "NORMAL": 1,
            "TANGENT": 2,
            "TEXCOORD_0": 3
          },
          "indices": 4,
          "material": 0
        }
      ],
      "name": "backpack_ammobox"
    },
    {
      "primitives": [
        {
          "attributes": {
            "POSITION": 5,
            "NORMAL": 6,
            "TANGENT": 7,
            "TEXCOORD_0": 8,
            "TEXCOORD_1": 9
          },
          "indices": 10,
          "material": 1
        }
      ],
      "name": "weapon_heavy_machinegun"
    },
    {
      "primitives": [
        {
          "attributes": {
            "POSITION": 11,
            "NORMAL": 12,
            "TANGENT": 13,
            "TEXCOORD_0": 14,
            "JOINTS_0": 22,
            "WEIGHTS_0": 23
          },
          "indices": 15,
          "material": 2
        }
      ],
      "name": "TS_Body_02_gunner"
    },
    {
      "primitives": [
        {
          "attributes": {
            "POSITION": 16,
            "NORMAL": 17,
            "TANGENT": 18,
            "TEXCOORD_0": 19,
            "JOINTS_0": 25,
            "WEIGHTS_0": 26
          },
          "indices": 20,
          "material": 2
        }
      ],
      "name": "TS_Head_15_gunner_only"
    }
  ],
  "nodes": [
    {
      "children": [
        1,
        27,
        28
      ],
      "rotation": [
        0.0,
        1.0,
        0.0,
        1.62920685E-07
      ],
      "translation": [
        4.0,
        0.0,
        -1.0
      ],
      "name": "ToonSoldiers_gunner"
    },
    {
      "children": [
        2
      ],
      "rotation": [
        -0.500000358,
        0.499999642,
        -0.499999642,
        -0.500000358
      ],
      "scale": [
        0.99999994,
        0.99999994,
        1.0
      ],
      "translation": [
        -1.55755742E-09,
        1.22350967,
        0.0356327631
      ],
      "name": "Bip001"
    },
    {
      "children": [
        3,
        7,
        11
      ],
      "rotation": [
        -0.5,
        0.5,
        -0.4999993,
        -0.5000007
      ],
      "scale": [
        1.0,
        0.99999994,
        0.99999994
      ],
      "name": "Bip001 Pelvis"
    },
    {
      "children": [
        4
      ],
      "rotation": [
        -0.018307237,
        0.9997613,
        0.000593987759,
        -0.0119095305
      ],
      "scale": [
        1.0,
        0.99999994,
        1.00000012
      ],
      "translation": [
        2.90679935E-07,
        3.17931182E-07,
        -0.189646423
      ],
      "name": "Bip001 L Thigh"
    },
    {
      "children": [
        5
      ],
      "rotation": [
        -4.84172945E-11,
        9.30063138E-10,
        -0.0519876741,
        -0.998647749
      ],
      "scale": [
        1.0,
        1.00000024,
        1.0
      ],
      "translation": [
        -0.6094277,
        0.0,
        0.0
      ],
      "name": "Bip001 L Calf"
    },
    {
      "children": [
        6
      ],
      "rotation": [
        2.66810348E-05,
        0.0119249746,
        0.03369277,
        -0.9993611
      ],
      "scale": [
        1.0,
        0.99999994,
        0.99999994
      ],
      "translation": [
        -0.427990258,
        0.0,
        -2.42233273E-08
      ],
      "name": "Bip001 L Foot"
    },
    {
      "rotation": [
        1.545435E-08,
        -1.5454269E-08,
        0.707106769,
        -0.7071068
      ],
      "scale": [
        0.9999999,
        0.99999994,
        0.99999994
      ],
      "translation": [
        -0.181221932,
        0.272826672,
        0.0
      ],
      "name": "Bip001 L Toe0"
    },
    {
      "children": [
        8
      ],
      "rotation": [
        -0.01830722,
        0.9997613,
        -0.000592628261,
        0.0119110309
      ],
      "scale": [
        0.99999994,
        0.99999994,
        1.0
      ],
      "translation": [
        -2.90679935E-07,
        -2.089262E-07,
        0.189646423
      ],
      "name": "Bip001 R Thigh"
    },
    {
      "children": [
        9
      ],
      "rotation": [
        1.54963528E-10,
        -1.85710014E-09,
        -0.0519876778,
        -0.998647749
      ],
      "scale": [
        1.00000012,
        1.00000024,
        1.0
      ],
      "translation": [
        -0.6094277,
        0.0,
        0.0
      ],
      "name": "Bip001 R Calf"
    },
    {
      "children": [
        10
      ],
      "rotation": [
        -2.66840543E-05,
        -0.0119250612,
        0.0336927734,
        -0.9993611
      ],
      "scale": [
        1.0,
        0.99999994,
        0.99999994
      ],
      "translation": [
        -0.427990258,
        0.0,
        -2.42233273E-08
      ],
      "name": "Bip001 R Foot"
    },
    {
      "rotation": [
        -1.545431E-08,
        1.545431E-08,
        0.7071068,
        -0.7071068
      ],
      "scale": [
        0.99999994,
        1.0,
        0.99999994
      ],
      "translation": [
        -0.181221932,
        0.272826672,
        0.0
      ],
      "name": "Bip001 R Toe0"
    },
    {
      "children": [
        12,
        14,
        19,
        21
      ],
      "rotation": [
        -2.08959773E-06,
        7.02930038E-07,
        0.0138396351,
        -0.9999043
      ],
      "scale": [
        1.0,
        1.0,
        0.99999994
      ],
      "translation": [
        -0.161174372,
        -0.000471355685,
        -2.241702E-07
      ],
      "name": "Bip001 Spine"
    },
    {
      "children": [
        13
      ],
      "rotation": [
        0.4928537,
        0.5070447,
        0.492853671,
        -0.5070466
      ],
      "scale": [
        1.0,
        1.00000024,
        1.00000012
      ],
      "translation": [
        -0.4589093,
        -0.27111873,
        3.996848E-07
      ],
      "name": "Backpack_container"
    },
    {
      "mesh": 0,
      "rotation": [
        0.0,
        0.0,
        0.0,
        -1.0
      ],
      "name": "backpack_ammobox"
    },
    {
      "children": [
        15
      ],
      "rotation": [
        -0.664633334,
        -0.0413126275,
        -0.7451422,
        -0.0363179632
      ],
      "translation": [
        -0.5700798,
        0.000613334647,
        -0.127353981
      ],
      "name": "Bip001 L Clavicle"
    },
    {
      "children": [
        16
      ],
      "rotation": [
        0.04255096,
        0.00127859169,
        -0.0407952741,
        -0.99826026
      ],
      "scale": [
        1.0,
        1.00000012,
        1.00000012
      ],
      "translation": [
        -0.249685511,
        -1.21116637E-08,
        0.0
      ],
      "name": "Bip001 L UpperArm"
    },
    {
      "children": [
        17
      ],
      "rotation": [
        -9.165928E-10,
        1.48729411E-08,
        -0.0615115166,
        -0.9981064
      ],
      "scale": [
        1.00000024,
        1.0,
        1.0
      ],
      "translation": [
        -0.4044886,
        0.0,
        1.93786619E-07
      ],
      "name": "Bip001 L Forearm"
    },
    {
      "children": [
        18
      ],
      "rotation": [
        -0.7068252,
        -1.31656452E-09,
        -1.31761335E-09,
        -0.7073883
      ],
      "translation": [
        -0.341679335,
        0.0,
        0.0
      ],
      "name": "Bip001 L Hand"
    },
    {
      "rotation": [
        0.6707961,
        0.07736971,
        -0.008265333,
        -0.7375488
      ],
      "scale": [
        0.99999994,
        1.00000012,
        0.99999994
      ],
      "translation": [
        -0.178604409,
        0.033346802,
        0.152488142
      ],
      "name": "WeaponContainer_L"
    },
    {
      "children": [
        20
      ],
      "rotation": [
        -4.493985E-15,
        3.4013388E-07,
        0.122632623,
        -0.992452145
      ],
      "scale": [
        1.00000012,
        1.00000012,
        1.0
      ],
      "translation": [
        -0.6330967,
        0.005227303,
        -5.6535483E-09
      ],
      "name": "Bip001 Neck"
    },
    {
      "rotation": [
        -3.26346318E-13,
        -3.78197171E-07,
        -0.136356711,
        -0.990659833
      ],
      "translation": [
        -0.125088871,
        0.0,
        9.240466E-14
      ],
      "name": "Bip001 Head"
    },
    {
      "children": [
        22
      ],
      "rotation": [
        0.664633453,
        0.0413105674,
        -0.745142341,
        -0.0363161042
      ],
      "scale": [
        1.00000012,
        1.00000012,
        1.0
      ],
      "translation": [
        -0.5700798,
        0.0006140371,
        0.127353966
      ],
      "name": "Bip001 R Clavicle"
    },
    {
      "children": [
        23
      ],
      "rotation": [
        -0.0425509661,
        -0.00127858436,
        -0.0407952741,
        -0.99826026
      ],
      "scale": [
        1.0,
        0.99999994,
        1.00000012
      ],
      "translation": [
        -0.249685481,
        0.0,
        0.0
      ],
      "name": "Bip001 R UpperArm"
    },
    {
      "children": [
        24
      ],
      "rotation": [
        6.87444657E-10,
        -1.11547074E-08,
        -0.0615115166,
        -0.9981064
      ],
      "scale": [
        1.00000012,
        1.00000012,
        1.0
      ],
      "translation": [
        -0.4044885,
        0.0,
        -1.93786619E-07
      ],
      "name": "Bip001 R Forearm"
    },
    {
      "children": [
        25
      ],
      "rotation": [
        0.7068252,
        -2.30608554E-09,
        -2.96253266E-09,
        -0.7073882
      ],
      "scale": [
        0.99999994,
        0.9999999,
        0.99999994
      ],
      "translation": [
        -0.341679245,
        0.0,
        1.93786619E-07
      ],
      "name": "Bip001 R Hand"
    },
    {
      "children": [
        26
      ],
      "rotation": [
        -0.6707958,
        -0.07737057,
        -0.008264296,
        -0.737548947
      ],
      "scale": [
        1.0,
        1.0,
        0.9999999
      ],
      "translation": [
        -0.178971142,
        0.0333037823,
        -0.152446285
      ],
      "name": "WeaponContainer"
    },
    {
      "mesh": 1,
      "rotation": [
        0.0,
        0.0,
        0.0,
        -1.0
      ],
      "name": "weapon_heavy_machinegun"
    },
    {
      "skin": 0,
      "mesh": 2,
      "rotation": [
        -0.7071068,
        0.0,
        0.0,
        -0.7071068
      ],
      "name": "TS_Body_02_gunner"
    },
    {
      "skin": 1,
      "mesh": 3,
      "rotation": [
        -0.7071068,
        0.0,
        0.0,
        -0.7071068
      ],
      "name": "TS_Head_15_gunner_only"
    }
  ],
  "scene": 0,
  "scenes": [
    {
      "nodes": [
        0
      ],
      "name": "ToonSoldiers_gunner"
    }
  ],
  "skins": [
    {
      "inverseBindMatrices": 21,
      "joints": [
        11,
        2,
        22,
        23,
        24,
        7,
        8,
        3,
        9,
        5,
        15,
        16,
        17,
        4
      ]
    },
    {
      "inverseBindMatrices": 24,
      "joints": [
        11,
        20
      ]
    }
  ]
}