{
	"asset":{
		"generator":"Khronos glTF Blender I/O v3.5.30",
		"version":"2.0"
	},
	"scene":0,
	"scenes":[
		{
			"name":"Scene",
			"nodes":[
				0
			]
		}
	],
	"nodes":[
		{
			"mesh":0,
			"name":"Snorkel"
		}
	],
	"materials":[
		{
			"doubleSided":true,
			"name":"Material.001",
			"pbrMetallicRoughness":{
				"baseColorTexture":{
					"index":0
				},
				"metallicFactor":0,
				"roughnessFactor":0.4000000059604645
			}
		}
	],
	"meshes":[
		{
			"name":"Cube.135",
			"primitives":[
				{
					"attributes":{
						"POSITION":0,
						"TEXCOORD_0":1,
						"NORMAL":2
					},
					"indices":3,
					"material":0
				}
			]
		}
	],
	"textures":[
		{
			"sampler":0,
			"source":0
		}
	],
	"images":[
		{
			"mimeType":"image/png",
			"name":"Truck",
			"uri":"Truck.png"
		}
	],
	"accessors":[
		{
			"bufferView":0,
			"componentType":5126,
			"count":4463,
			"max":[
				1.900414228439331,
				2.0265302658081055,
				4.03741979598999
			],
			"min":[
				-1.9778814315795898,
				-1.2294062376022339,
				-4.355436325073242
			],
			"type":"VEC3"
		},
		{
			"bufferView":1,
			"componentType":5126,
			"count":4463,
			"type":"VEC2"
		},
		{
			"bufferView":2,
			"componentType":5126,
			"count":4463,
			"type":"VEC3"
		},
		{
			"bufferView":3,
			"componentType":5123,
			"count":8850,
			"type":"SCALAR"
		}
	],
	"bufferViews":[
		{
			"buffer":0,
			"byteLength":53556,
			"byteOffset":0,
			"target":34962
		},
		{
			"buffer":0,
			"byteLength":35704,
			"byteOffset":53556,
			"target":34962
		},
		{
			"buffer":0,
			"byteLength":53556,
			"byteOffset":89260,
			"target":34962
		},
		{
			"buffer":0,
			"byteLength":17700,
			"byteOffset":142816,
			"target":34963
		}
	],
	"samplers":[
		{
			"magFilter":9729,
			"minFilter":9987
		}
	],
	"buffers":[
		{
			"byteLength":160516,
			"uri":"chassis.bin"
		}
	]
}
