{
	"asset":{
		"generator":"Khronos glTF Blender I/O v3.5.30",
		"version":"2.0"
	},
	"scene":0,
	"scenes":[
		{
			"name":"Scene",
			"nodes":[
				1,
				2
			]
		}
	],
	"nodes":[
		{
			"mesh":0,
			"name":"disk",
			"rotation":[
				0.5000000596046448,
				0.5,
				-0.5,
				0.5
			]
		},
		{
			"children":[
				0
			],
			"mesh":1,
			"name":"wheel",
			"scale":[
				1.462767243385315,
				1,
				1
			]
		},
		{
			"mesh":2,
			"name":"wheel_protector",
			"rotation":[
				-0.13062460720539093,
				0,
				0,
				0.9914318919181824
			],
			"scale":[
				1.462767243385315,
				1,
				1
			],
			"translation":[
				0.001918090390972793,
				0.0005551819340325892,
				-0.0002345343236811459
			]
		}
	],
	"materials":[
		{
			"doubleSided":true,
			"name":"disk",
			"pbrMetallicRoughness":{}
		},
		{
			"doubleSided":true,
			"name":"rubber",
			"pbrMetallicRoughness":{}
		}
	],
	"meshes":[
		{
			"name":"Circle.000",
			"primitives":[
				{
					"attributes":{
						"POSITION":0,
						"NORMAL":1
					},
					"indices":2,
					"material":0
				}
			]
		},
		{
			"name":"Plane.001",
			"primitives":[
				{
					"attributes":{
						"POSITION":3,
						"NORMAL":4
					},
					"indices":5,
					"material":1
				}
			]
		},
		{
			"name":"Plane.005",
			"primitives":[
				{
					"attributes":{
						"POSITION":6,
						"NORMAL":7
					},
					"indices":8,
					"material":1
				}
			]
		}
	],
	"accessors":[
		{
			"bufferView":0,
			"componentType":5126,
			"count":2908,
			"max":[
				0.4369764029979706,
				0.20298834145069122,
				0.4369764029979706
			],
			"min":[
				-0.4369763731956482,
				-0.18581828474998474,
				-0.4369764029979706
			],
			"type":"VEC3"
		},
		{
			"bufferView":1,
			"componentType":5126,
			"count":2908,
			"type":"VEC3"
		},
		{
			"bufferView":2,
			"componentType":5123,
			"count":17172,
			"type":"SCALAR"
		},
		{
			"bufferView":3,
			"componentType":5126,
			"count":4416,
			"max":[
				0.2577665448188782,
				0.7964622974395752,
				0.7964622974395752
			],
			"min":[
				-0.2577665448188782,
				-0.7964622974395752,
				-0.7964622974395752
			],
			"type":"VEC3"
		},
		{
			"bufferView":4,
			"componentType":5126,
			"count":4416,
			"type":"VEC3"
		},
		{
			"bufferView":5,
			"componentType":5123,
			"count":26496,
			"type":"SCALAR"
		},
		{
			"bufferView":6,
			"componentType":5126,
			"count":57936,
			"max":[
				0.26035481691360474,
				0.8460551500320435,
				0.8467360734939575
			],
			"min":[
				-0.25957655906677246,
				-0.8472502827644348,
				-0.846569299697876
			],
			"type":"VEC3"
		},
		{
			"bufferView":7,
			"componentType":5126,
			"count":57936,
			"type":"VEC3"
		},
		{
			"bufferView":8,
			"componentType":5123,
			"count":343296,
			"type":"SCALAR"
		}
	],
	"bufferViews":[
		{
			"buffer":0,
			"byteLength":34896,
			"byteOffset":0,
			"target":34962
		},
		{
			"buffer":0,
			"byteLength":34896,
			"byteOffset":34896,
			"target":34962
		},
		{
			"buffer":0,
			"byteLength":34344,
			"byteOffset":69792,
			"target":34963
		},
		{
			"buffer":0,
			"byteLength":52992,
			"byteOffset":104136,
			"target":34962
		},
		{
			"buffer":0,
			"byteLength":52992,
			"byteOffset":157128,
			"target":34962
		},
		{
			"buffer":0,
			"byteLength":52992,
			"byteOffset":210120,
			"target":34963
		},
		{
			"buffer":0,
			"byteLength":695232,
			"byteOffset":263112,
			"target":34962
		},
		{
			"buffer":0,
			"byteLength":695232,
			"byteOffset":958344,
			"target":34962
		},
		{
			"buffer":0,
			"byteLength":686592,
			"byteOffset":1653576,
			"target":34963
		}
	],
	"buffers":[
		{
			"byteLength":2340168,
			"uri":"tire2.bin"
		}
	]
}
